<?xml version="1.0" encoding="UTF-8"?>
<svg width="52px" height="52px" viewBox="0 0 52 52" version="1.1" xmlns="http://www.w3.org/2000/svg" xmlns:xlink="http://www.w3.org/1999/xlink">
    <!-- Generator: Sketch 52.2 (67145) - http://www.bohemiancoding.com/sketch -->
    <title>Icon</title>
    <g stroke="none" stroke-width="1" fill="none" fill-rule="evenodd">
        <path d="M26,52 C11.6405965,52 0,40.3594035 0,26 C0,19.2029596 2.60820754,13.0150986 6.87838036,8.38265945 C11.6293595,3.22862409 18.437637,0 26,0 C33.2906673,0 39.8804603,3.00079962 44.6016431,7.834663 C49.1791111,12.5213815 52,18.9312638 52,26 C52,40.3594035 40.3594035,52 26,52 Z M26,39 C33.1797017,39 39,33.1797017 39,26 C39,22.5995852 37.6944418,19.5040998 35.5572382,17.1874567 C33.1819088,14.6126947 29.7792869,13 26,13 C22.4733565,13 19.2747016,14.4042859 16.9327086,16.6841844 C14.5067654,19.0458073 13,22.3469417 13,26 C13,33.1797017 18.8202983,39 26,39 Z" fill="#FFFFFF"></path>
    </g>
</svg>